<?xml version="1.0" ?><!-- Uploaded to: SVG Repo, www.svgrepo.com, Generator: SVG Repo Mixer Tools -->
<svg width="800px" height="800px" viewBox="0 0 96 96" xmlns="http://www.w3.org/2000/svg"><title/><path d="M8,15V9.66A7.66,7.66,0,0,1,15.63,2H61.38A7.66,7.66,0,0,1,69,9.66V15Z" style="fill:#eaeaea"/><path d="M39,75c0,10.49,10.3,19,23,19h0c12.7,0,23-8.51,23-19V37" style="fill:none;stroke:#281a3b;stroke-linecap:round;stroke-linejoin:round;stroke-width:4px"/><polygon points="87 53 85 53 83 53 83 47 85 41 87 47 87 53" style="fill:none;stroke:#281a3b;stroke-linecap:round;stroke-linejoin:round;stroke-width:4px"/><path d="M61.38,2H46c8.28,0,15,6.72,15,13h8V9.66A7.66,7.66,0,0,0,61.38,2Z" style="fill:#bacece"/><path d="M78,15V75H38.5A30.61,30.61,0,0,0,69,44.26V15Z" style="fill:none"/><path d="M69,15V44.26a30.5,30.5,0,1,1-61,0V15Z" style="fill:#f47c6d"/><path d="M61,15V44.26A30.65,30.65,0,0,1,34.5,74.73,30.45,30.45,0,0,0,69,44.26V15Z" style="fill:#d6544d"/><path d="M37.5,51.75c-4.14,0-7.5-3.86-7.5-7.77,0-5.73,7.5-19.23,7.5-19.23S45,38.25,45,44C45,47.89,41.64,51.75,37.5,51.75Z" style="fill:#d6544d"/><path d="M37.5,51.75c-4.14,0-7.5-3.86-7.5-7.77,0-5.73,7.5-19.23,7.5-19.23S45,38.25,45,44C45,47.89,41.64,51.75,37.5,51.75Z" style="fill:none;stroke:#281a3b;stroke-linecap:round;stroke-linejoin:round;stroke-width:4px"/><path d="M69,9.68V44.26a30.5,30.5,0,1,1-61,0V9.68A7.68,7.68,0,0,1,15.63,2H61.38A7.68,7.68,0,0,1,69,9.68Z" style="fill:none;stroke:#281a3b;stroke-linecap:round;stroke-linejoin:round;stroke-width:4px"/></svg>