<?xml version="1.0" encoding="iso-8859-1"?>
<!-- Uploaded to: SVG Repo, www.svgrepo.com, Generator: SVG Repo Mixer Tools -->
<svg height="800px" width="800px" version="1.1" id="Layer_1" xmlns="http://www.w3.org/2000/svg" xmlns:xlink="http://www.w3.org/1999/xlink" 
	 viewBox="0 0 416.011 416.011" xml:space="preserve">
<g transform="translate(0 -1020.36)" shape-rendering="auto" image-rendering="auto" color-rendering="auto" color-interpolation="sRGB">
	<g>
		<path style="fill:#484666;" d="M42.497,1084.416c1.782-0.014,3.564,0.176,5.375,0.545c13.26,2.695,22.403,15.277,20.813,28.715
			l-6.875,57.305l1.906-0.48c13.852-3.719,28.296,4.553,32.001,18.402l11.344,42.4l29.751,29.996
			c10.417,10.531,17.131,24.199,19.157,38.871l4.781,34.963l6.656-1.783c1.036-0.293,2.12-0.375,3.188-0.24
			c3.198,0.451,5.812,2.781,6.625,5.906l14.532,54.084c1.152,4.266-1.373,8.656-5.639,9.809c-0.006,0-0.011,0.002-0.017,0.004
			l-123.565,33.182c-4.266,1.15-8.658-1.373-9.809-5.639c-0.001-0.006-0.002-0.01-0.004-0.014l-14.407-54.084
			c-1.146-4.268,1.384-8.654,5.652-9.801c0.012-0.004,0.024-0.006,0.036-0.01l13.469-3.629l-42.189-78.455
			c-13.307-24.826-18.072-53.279-13.688-81.113l15.219-96.861c2.015-12.785,13.217-21.934,25.688-22.027L42.497,1084.416z"/>
		<path style="fill:#FFD3B3;" d="M44.591,1100.539h-0.125c-5.71-1.104-10.898,2.6-11.813,8.404l-15.25,96.828
			c-3.842,24.393,0.402,49.33,12.063,71.084l43.845,81.77l71.877-19.342l-5.063-37.023c-1.553-11.25-6.764-21.703-14.75-29.777
			l-32.595-33.057l-12.407-46.4c-1.47-5.496-6.911-8.566-12.407-7.092l-3.656,0.943c-5.507,1.488-8.567,6.898-7.094,12.404
			l18.063,67.553l-15.469,4.125l-18.063-67.553c-1.869-6.988-0.689-14.102,2.719-19.934c-0.103-0.875-0.061-1.762,0.125-2.623
			l8.125-69.084c0.631-5.332-2.805-10.029-8.031-11.094c-0.032-0.053-0.063-0.105-0.094-0.16V1100.539z"/>
		<path style="fill:#36D7B7;" d="M163.875,1350.908L55.81,1379.845l10.281,38.619l108.065-28.934L163.875,1350.908z"/>
		<path style="fill:#37B89E;" d="M163.881,1350.9l-5.469,1.473l9.906,37.154l-102.594,27.467l0.375,1.473l108.063-28.934
			L163.881,1350.9z"/>
		<path style="fill:#D8B59B;" d="M44.474,1100.543c-1.963-0.385-3.782,0-5.469,0.623c4.493,1.52,7.421,5.711,6.844,10.594
			l-8.125,69.088c-0.186,0.861-0.228,1.75-0.125,2.625c-3.408,5.834-4.588,12.945-2.719,19.936l18.063,67.527l6.406-1.719
			l-17.594-65.809c-1.869-6.99-0.689-14.102,2.719-19.936c-0.103-0.875-0.061-1.764,0.125-2.625l8.125-69.088
			c0.631-5.332-2.805-10.031-8.031-11.094c-0.032-0.053-0.063-0.105-0.094-0.16L44.474,1100.543z M72.006,1185.63
			c-1.306-0.16-2.657,0-4.031,0.32l-1.062,0.271c3.093,1.008,5.669,3.355,6.594,6.813l12.406,46.402l32.594,33.029
			c7.987,8.074,13.197,18.529,14.75,29.779l5.063,37.029l-65.875,17.717l0.875,1.625l71.875-19.342l-5.063-37.029
			c-1.553-11.25-6.763-21.705-14.75-29.779l-32.594-33.029l-12.406-46.402c-1.102-4.121-4.457-6.906-8.375-7.406L72.006,1185.63z"/>
		<path style="fill:#484666;" d="M373.515,1084.416c-1.782-0.014-3.564,0.176-5.375,0.545c-13.26,2.695-22.403,15.277-20.813,28.715
			l6.875,57.305l-1.906-0.48c-13.852-3.719-28.296,4.553-32.001,18.402l-11.344,42.4l-29.751,29.996
			c-10.417,10.531-17.131,24.199-19.157,38.871l-4.781,34.963l-6.656-1.783c-1.036-0.293-2.12-0.375-3.188-0.24
			c-3.198,0.451-5.812,2.781-6.625,5.906l-14.532,54.084c-1.152,4.266,1.373,8.656,5.639,9.809c0.006,0,0.011,0.002,0.017,0.004
			l123.565,33.182c4.266,1.15,8.658-1.373,9.809-5.639c0.001-0.006,0.002-0.01,0.004-0.014l14.407-54.084
			c1.146-4.268-1.384-8.654-5.652-9.801c-0.012-0.004-0.024-0.006-0.036-0.01l-13.469-3.629l42.189-78.455
			c13.307-24.826,18.072-53.279,13.688-81.113l-15.219-96.861c-2.015-12.785-13.217-21.934-25.688-22.027L373.515,1084.416z"/>
		<path style="fill:#FFD3B3;" d="M371.421,1100.539h0.125c5.71-1.104,10.898,2.6,11.813,8.404l15.25,96.828
			c3.842,24.393-0.402,49.33-12.063,71.084l-43.845,81.77l-71.877-19.342l5.063-37.023c1.553-11.25,6.764-21.703,14.75-29.777
			l32.595-33.057l12.407-46.4c1.47-5.496,6.911-8.566,12.407-7.092l3.656,0.943c5.507,1.488,8.567,6.898,7.094,12.404
			l-18.063,67.553l15.469,4.125l18.063-67.553c1.869-6.988,0.689-14.102-2.719-19.934c0.103-0.875,0.061-1.762-0.125-2.623
			l-8.125-69.084c-0.631-5.332,2.805-10.029,8.031-11.094c0.032-0.053,0.064-0.105,0.094-0.16L371.421,1100.539z"/>
		<path style="fill:#36D7B7;" d="M252.137,1350.908l108.065,28.938l-10.281,38.619l-108.065-28.934L252.137,1350.908z"/>
		<path style="fill:#37B89E;" d="M252.131,1350.9l-0.563,2.094l100.25,26.842l-9.719,36.529l7.813,2.094l10.281-38.623
			L252.131,1350.9z"/>
		<path style="fill:#D8B59B;" d="M371.412,1100.543c-0.031,0.055-0.062,0.107-0.094,0.16c-0.509,0.16-0.902,0.4-1.375,0.561
			c3.13,1.279,5.568,3.98,6.156,7.719l15.25,96.836c3.842,24.393-0.402,49.305-12.063,71.057l-42.938,80.057l6.344,1.721
			l43.844-81.775c11.661-21.754,15.904-46.666,12.063-71.057l-15.249-96.836c-0.915-5.805-6.102-9.512-11.813-8.406
			L371.412,1100.543z M344.006,1185.63c-0.688,0.16-1.294,0.432-1.938,0.656l2.375,0.592c5.507,1.488,8.567,6.898,7.094,12.406
			l-18.063,67.527l15.469,4.125l0.469-1.813l-8.688-2.313l18.063-67.527c1.473-5.508-1.587-10.924-7.094-12.406l-3.656-0.943
			c-1.374-0.367-2.725-0.48-4.031-0.32V1185.63z"/>
	</g>
	<path style="fill:#484666;" d="M164.025,1020.363c-28.592,0-51.97,23.148-51.97,51.605c0,0,0,0,0,0.16
		c0.016,15.189,7.592,27.951,16.89,38.023c24.432,26.473,72.994,83.492,72.994,83.492c3.155,3.67,8.819,3.725,12.048,0.16
		c0,0,51.887-58.568,76.892-87.508c8.165-9.447,13.091-21.357,13.111-34.129c0,0,0,0,0-0.16c0-28.457-23.378-51.604-51.97-51.604
		c-25.951,0-39.527,16.169-43.806,21.243c-5.914-5.457-25.396-20.817-44.188-21.286L164.025,1020.363z"/>
	<path style="fill:#D87070;" d="M164.025,1036.423c19.023,0,37.796,21.021,37.796,21.021c3.206,3.918,9.196,3.918,12.402,0
		c0,0,18.773-21.021,37.796-21.021c20.003,0,36.024,15.818,36.024,35.545c-0.013,8.639-3.446,17.045-9.331,23.854
		c-22.869,26.467-63.569,72.455-70.632,80.42c-6.876-8.068-44.36-52.113-67.324-76.996c-7.701-8.344-12.746-17.502-12.756-27.279
		c0-19.727,16.021-35.545,36.024-35.545V1036.423z"/>
	<path style="fill:#BD5858;" d="M164.037,1036.422c-1.549,0-3.035,0.256-4.531,0.432c17.761,2.273,34.313,20.594,34.313,20.594
		c2.583,3.156,6.902,3.617,10.188,1.686c-0.784-0.465-1.57-0.928-2.188-1.686c0,0-18.758-21.031-37.781-21.031V1036.422z
		 M252.006,1036.422c-1.168,0-2.307,0.287-3.469,0.432c17.818,2.195,31.5,16.924,31.5,35.123
		c-0.013,8.639-3.428,17.031-9.313,23.842c-21.559,24.951-56.462,64.4-66.594,75.838c0.785,0.928,3.447,4.02,3.938,4.594
		c7.063-7.967,47.787-53.965,70.656-80.432c5.884-6.811,9.299-15.203,9.313-23.842c0-19.727-16.028-35.561-36.031-35.561V1036.422z"
		/>
</g>
</svg>