<!DOCTYPE svg PUBLIC "-//W3C//DTD SVG 1.1//EN" "http://www.w3.org/Graphics/SVG/1.1/DTD/svg11.dtd">
<!-- Uploaded to: SVG Repo, www.svgrepo.com, Transformed by: SVG Repo Mixer Tools -->
<svg fill="#006dd3" height="800px" width="800px" version="1.1" id="Layer_1" xmlns="http://www.w3.org/2000/svg" xmlns:xlink="http://www.w3.org/1999/xlink" viewBox="0 0 481.952 481.952" xml:space="preserve" stroke="#006dd3" stroke-width="7.22928">
<g id="SVGRepo_bgCarrier" stroke-width="0"/>
<g id="SVGRepo_tracerCarrier" stroke-linecap="round" stroke-linejoin="round" stroke="#CCCCCC" stroke-width="14.45856"/>
<g id="SVGRepo_iconCarrier"> <g> <g> <path d="M471.28,332.368c-6.168-4.568-13.904-5.92-21.248-3.696L327.8,365.6c-2.408-8.072-8.328-14.776-16.424-18.088 l-62.656-25.608c-4.648-1.896-9.688-2.304-14.528-1.152l-65.584,15.328c-0.864-3.488-3.872-6.128-7.632-6.128h-41.472 c-3.312-9.288-12.112-16-22.528-16h-88c-4.424,0-8,3.576-8,8v152c0,4.424,3.576,8,8,8h88c10.416,0,19.216-6.712,22.528-16h41.472 c1.672,0,3.136-0.632,4.416-1.504l70.072,16.56c1.8,0.424,3.656,0.632,5.504,0.632c1.848,0,3.704-0.208,5.504-0.632L378.8,449.872 c0.92-0.216,1.808-0.6,2.6-1.136l88.872-59.248c6.712-4.456,10.704-11.928,10.704-19.968v-17.88 C480.976,343.968,477.448,336.944,471.28,332.368z M104.976,457.952c0,4.416-3.584,8-8,8h-80v-136h80c4.416,0,8,3.584,8,8V457.952 z M152.976,449.952h-32v-104h32V449.952z M464.976,369.52c0,2.68-1.328,5.168-3.56,6.656l-87.672,58.456l-130.928,30.8 c-1.2,0.296-2.48,0.296-3.664,0l-69.672-16.464l-0.472-96.544l68.832-16.088c1.616-0.376,3.304-0.248,4.832,0.384l62.64,25.608 c4.656,1.896,7.664,6.384,7.664,11.44c0,6.712-5.52,12.184-12.32,12.184h-59.68c-4.424,0-8,3.576-8,8s3.576,8,8,8h59.68 c12.6,0,23.304-8.224,26.968-19.584l127.04-38.384c2.456-0.752,5.04-0.296,7.08,1.232c2.056,1.528,3.232,3.872,3.232,6.424V369.52 z"/> </g> </g> <g> <g> <path d="M72.976,433.952h-24c-4.424,0-8,3.576-8,8s3.576,8,8,8h24c4.424,0,8-3.576,8-8S77.4,433.952,72.976,433.952z"/> </g> </g> <g> <g> <path d="M311.336,0c-7.64,0-15.48,3.736-23.936,12.296c-37.088,37.472-79.24,150.872-78.768,197.144 c0.592,56.176,45.032,96.512,103.608,96.512c0.424,0,0.848,0,1.272,0c60.28,0,105.296-42.32,104.712-98.904 C417.656,152.336,349.952,0,311.336,0z M313.344,289.952c-0.36,0-0.72,0-1.088,0c-49.536,0-87.136-33.56-87.624-80.688 c-0.44-41.976,40.912-151.304,74.136-184.88c7.12-7.184,11.168-7.96,12.568-7.96c21.72,0,90.296,133.888,90.888,191.008 C402.72,254.888,364.504,289.952,313.344,289.952z"/> </g> </g> <g> <g> <path d="M313.2,153.592c-31.72,0-57.528,25.808-57.528,57.528c0,31.72,25.8,57.528,57.528,57.528 c31.728,0,57.528-25.808,57.528-57.528C370.728,179.4,344.92,153.592,313.2,153.592z M313.2,252.64 c-22.896,0-41.528-18.632-41.528-41.528s18.632-41.528,41.528-41.528s41.528,18.632,41.528,41.528S336.096,252.64,313.2,252.64z"/> </g> </g> <g> <g> <path d="M328.976,201.952h-8v-8c0-4.424-3.576-8-8-8s-8,3.576-8,8v8h-8c-4.424,0-8,3.576-8,8s3.576,8,8,8h8v8c0,4.424,3.576,8,8,8 s8-3.576,8-8v-8h8c4.424,0,8-3.576,8-8S333.4,201.952,328.976,201.952z"/> </g> </g> <g> <g> <path d="M154.672,136.272L129.688,122.6l-13.672-24.984c-1.4-2.568-4.096-4.168-7.016-4.168s-5.616,1.592-7.016,4.16L88.312,122.6 L63.32,136.272c-2.56,1.4-4.16,4.096-4.16,7.016c0,2.92,1.6,5.616,4.168,7.016l24.984,13.672l13.672,24.984 c1.4,2.568,4.096,4.168,7.016,4.168s5.616-1.592,7.016-4.168l13.672-24.984l24.984-13.672c2.568-1.4,4.168-4.096,4.168-7.016 C158.84,140.368,157.248,137.672,154.672,136.272z M119.952,151.064c-1.344,0.736-2.448,1.832-3.176,3.176L109,168.448 l-7.784-14.208c-0.736-1.344-1.832-2.448-3.176-3.176l-14.2-7.776l14.208-7.784c1.336-0.736,2.44-1.832,3.168-3.168L109,118.128 l7.776,14.2c0.736,1.344,1.832,2.448,3.176,3.176l14.208,7.784L119.952,151.064z"/> </g> </g> </g>
</svg>