<!DOCTYPE svg PUBLIC "-//W3C//DTD SVG 1.1//EN" "http://www.w3.org/Graphics/SVG/1.1/DTD/svg11.dtd">
<!-- Uploaded to: SVG Repo, www.svgrepo.com, Transformed by: SVG Repo Mixer Tools -->
<svg fill="#006dd3" height="800px" width="800px" version="1.1" id="_x31_" xmlns="http://www.w3.org/2000/svg" xmlns:xlink="http://www.w3.org/1999/xlink" viewBox="0 0 128 128" xml:space="preserve" stroke="#006dd3">
<g id="SVGRepo_bgCarrier" stroke-width="0"/>
<g id="SVGRepo_tracerCarrier" stroke-linecap="round" stroke-linejoin="round"/>
<g id="SVGRepo_iconCarrier"> <circle id="_x36__10_" cx="65.7" cy="40.6" r="8.1"/> <polygon id="_x35__22_" points="53.6,67 52.2,65.6 40.6,54 39.2,52.6 33.7,58.1 38,62.4 33.3,67.2 39,73 43.9,68.3 48.1,72.5 "/> <path id="_x32__68_" d="M65,52.8c-6.1-0.4-11.2-5.3-11.6-11.6l-10,10l11.6,11.6L65,52.8z"/> <path id="_x31__69_" d="M106.4,75.2c0-17.3-10.8-32-25.9-37.9l11.6-11.6l-2.9-2.9l8.1-8.1L91.7,9l-8.1,8.1l-3.1-3.1L66.3,28.3 c6.5,0.4,11.6,5.7,11.6,12.2c0,2.9-1,5.7-2.9,7.7c11.2,3.9,19.1,14.5,19.1,26.9c0,15.7-12.8,28.5-28.5,28.5 c-8.8,0-16.5-3.9-21.8-10.2h9.8V81.3H17v12.2h12.4c1.8,3.9,4.5,7.1,7.3,10.2H24.9V120h81.5v-16.3H94.8 C101.9,96.4,106.4,86.2,106.4,75.2z"/> </g>
</svg>