<!DOCTYPE svg PUBLIC "-//W3C//DTD SVG 1.1//EN" "http://www.w3.org/Graphics/SVG/1.1/DTD/svg11.dtd">
<!-- Uploaded to: SVG Repo, www.svgrepo.com, Transformed by: SVG Repo Mixer Tools -->
<svg width="800px" height="800px" viewBox="0 0 24 24" id="_24x24_On_Light_Recent" data-name="24x24/On Light/Recent" xmlns="http://www.w3.org/2000/svg" fill="#0A76D8">
<g id="SVGRepo_bgCarrier" stroke-width="0"/>
<g id="SVGRepo_tracerCarrier" stroke-linecap="round" stroke-linejoin="round"/>
<g id="SVGRepo_iconCarrier"> <rect id="view-box" width="24" height="24" fill="none"/> <path id="Shape" d="M9.682,18.75a.75.75,0,0,1,.75-.75,8.25,8.25,0,1,0-6.189-2.795V12.568a.75.75,0,0,1,1.5,0v4.243a.75.75,0,0,1-.751.75H.75a.75.75,0,0,1,0-1.5H3a9.75,9.75,0,1,1,7.433,3.44A.75.75,0,0,1,9.682,18.75Zm2.875-4.814L9.9,11.281a.754.754,0,0,1-.22-.531V5.55a.75.75,0,1,1,1.5,0v4.889l2.436,2.436a.75.75,0,1,1-1.061,1.06Z" transform="translate(1.568 2.25)" fill="#0A76D8"/> </g>
</svg>