<!DOCTYPE svg PUBLIC "-//W3C//DTD SVG 1.1//EN" "http://www.w3.org/Graphics/SVG/1.1/DTD/svg11.dtd">
<!-- Uploaded to: SVG Repo, www.svgrepo.com, Transformed by: SVG Repo Mixer Tools -->
<svg width="800px" height="800px" viewBox="0 0 1024 1024" class="icon" version="1.1" xmlns="http://www.w3.org/2000/svg" fill="#000000">
<g id="SVGRepo_bgCarrier" stroke-width="0"/>
<g id="SVGRepo_tracerCarrier" stroke-linecap="round" stroke-linejoin="round"/>
<g id="SVGRepo_iconCarrier">
<path d="M541.866667 119.466667c-17.066667-17.066667-42.666667-17.066667-59.733334 0l-256 256c-17.066667 17.066667-17.066667 42.666667 0 59.733333 8.533333 8.533333 19.2 12.8 29.866667 12.8s21.333333-4.266667 29.866667-12.8l256-256c17.066667-17.066667 17.066667-42.666667 0-59.733333z" fill="#aaa"/>
<path d="M797.866667 375.466667l-256-256c-17.066667-17.066667-42.666667-17.066667-59.733334 0-17.066667 17.066667-17.066667 42.666667 0 59.733333l256 256c8.533333 8.533333 19.2 12.8 29.866667 12.8s21.333333-4.266667 29.866667-12.8c17.066667-17.066667 17.066667-42.666667 0-59.733333z" fill="#212121"/>
<path d="M797.866667 874.666667H226.133333c-21.333333 0-38.4-14.933333-42.666666-34.133334L106.666667 448h810.666666l-78.933333 392.533333c-4.266667 19.2-21.333333 34.133333-40.533333 34.133334z" fill="#999"/>
<path d="M917.333333 490.666667H106.666667c-23.466667 0-42.666667-19.2-42.666667-42.666667v-42.666667c0-23.466667 19.2-42.666667 42.666667-42.666666h810.666666c23.466667 0 42.666667 19.2 42.666667 42.666666v42.666667c0 23.466667-19.2 42.666667-42.666667 42.666667z" fill="#444"/>
<path d="M657.066667 529.066667l-168.533334 168.533333-78.933333-81.066667-46.933333 46.933334 125.866666 125.866666L704 573.866667z" fill="#ccc"/>
</g>
</svg>